# xmcd CD database file
#
# Track frame offsets:
#	150
#	18004
#	32283
#	51265
#	64902
#	67422
#	86329
#	104143
#	123038
#	136796
#	155656
#	177338
#	192065
#	203139
#
# Disc length: 2889 seconds
#
# Revision: 0
# Processed by: cddbd v1.5.1PL2 Copyright (c) Steve Scherf et al.
# Submitted via: CDex 1.51
#
DISCID=bc0b470e
DTITLE=Travoltas - High School Reunion
DYEAR=2005
DGENRE=Pop
TTITLE0=The Highschool Reunion
TTITLE1=Out On The Streets
TTITLE2=(All We Really Want Is) Rock'n Roll
TTITLE3=Rushing Into Tomorrow
TTITLE4=At The Arcade
TTITLE5=Class Of '88
TTITLE6=It Had 2 B U
TTITLE7=All Or Nothing
TTITLE8=Can't Stop
TTITLE9=Major Tom
TTITLE10=Alive and Around
TTITLE11=Out On The Streets (Live)
TTITLE12=Waimea
TTITLE13=Told You So
EXTD=YEAR: 2005
EXTT0=
EXTT1=
EXTT2=
EXTT3=
EXTT4=
EXTT5=
EXTT6=
EXTT7=
EXTT8=
EXTT9=
EXTT10=
EXTT11=
EXTT12=
EXTT13=
PLAYORDER=
